<?xml version="1.0" encoding="UTF-8" standalone="no"?><!-- Generator: Gravit.io --><svg xmlns="http://www.w3.org/2000/svg" xmlns:xlink="http://www.w3.org/1999/xlink" style="isolation:isolate" viewBox="0 0 394 393.978" width="394pt" height="393.978pt"><defs><clipPath id="_clipPath_0nA9AWuf79IeSkhqQZrdJfBRMz7gZI8a"><rect width="394" height="393.978"/></clipPath></defs><g clip-path="url(#_clipPath_0nA9AWuf79IeSkhqQZrdJfBRMz7gZI8a)"><path d=" M 194.138 0 C 204.649 0.039 213.87 3.579 220.15 12.205 C 224.08 17.602 225.254 25.386 224.535 31.905 C 223.309 43.033 214.521 52.218 203.935 55.017 L 203.935 55.017 L 203.935 97.223 L 203.935 107.774 Q 202.93 111.542 204.689 112.547 Q 234.194 115.952 251.416 131.64 L 291.863 90.691 C 290.827 89.387 290.035 87.9 289.464 86.338 C 285.041 74.245 290.618 60.221 301.121 53.285 C 310.852 46.86 325.112 48.567 333.909 55.742 C 341.87 62.234 345.002 72.01 343.614 82.149 C 342.56 89.847 337.339 97.151 330.914 101.354 C 325.789 104.707 319.526 105.235 313.569 105.111 C 309.594 105.029 305.505 103.615 302.163 101.493 L 302.163 101.493 L 288.848 114.306 L 286.587 117.069 L 282.819 120.335 L 274.528 129.128 L 268.75 134.403 L 266.489 137.167 L 261.214 141.94 C 273.15 154.973 279.161 172.135 281.563 189.421 L 281.563 189.421 L 338.59 189.169 C 342.183 175.489 354.979 167.24 368.988 168.821 C 369.466 168.875 369.937 168.99 370.406 169.098 C 380.588 171.446 390.445 178.206 393.033 188.864 C 395.234 197.929 393.767 207.481 387.701 214.76 C 376.712 227.947 354.694 228.257 344.117 214.292 L 344.117 214.292 L 338.841 203.992 L 296.636 203.992 L 286.085 203.992 Q 282.316 202.987 281.311 204.745 Q 277.664 234.259 262.219 251.975 L 265.233 254.487 L 266.992 256.748 L 270.76 260.014 L 271.514 261.27 L 275.282 264.536 L 277.543 267.299 L 280.809 270.063 L 302.163 291.919 C 307.082 288.381 313.415 287.999 319.255 288.286 C 327.76 288.703 335.94 294.108 340.475 301.181 C 346.781 311.017 345.32 325.509 337.959 334.341 C 325.696 349.058 302.125 346.42 292.133 330.525 C 288.963 325.483 288.543 319.372 288.73 313.579 C 288.857 309.619 290.249 305.553 292.365 302.219 L 292.365 302.219 L 251.416 261.772 C 238.537 273.561 221.52 279.375 204.438 281.619 L 204.438 281.619 L 204.438 324.326 L 204.438 334.878 Q 203.433 338.646 205.191 339.651 Q 214.194 341.954 219.009 348.444 Q 225.616 355.402 225.038 369.546 Q 222.94 381.768 214.738 387.885 Q 207.637 394.602 193.133 393.915 Q 182.125 392.11 176.301 385.122 Q 167.934 377.913 169.267 361.005 Q 171.905 349.574 180.069 343.67 Q 184.198 340.513 189.867 338.897 L 189.867 296.692 L 189.867 286.141 Q 190.872 282.373 189.113 281.368 Q 159.054 278.266 142.386 261.772 L 112.24 291.919 L 104.452 299.707 Q 101.688 299.958 101.94 303.224 Q 106.04 309.172 105.457 319.804 Q 103.171 332.843 94.152 339.149 Q 87.245 345.055 73.552 344.173 Q 60.865 341.786 54.71 332.868 Q 49.284 325.984 49.686 313.273 Q 51.971 300.234 60.991 293.929 Q 67.758 287.382 82.596 288.904 L 91.64 292.421 L 132.086 251.472 C 120.219 238.643 114.428 221.591 112.24 204.494 L 112.24 204.494 L 54.71 204.745 C 51.239 218.133 37.388 227.931 23.384 224.829 C 11.926 222.291 2.546 214.533 0.505 202.582 C 0.326 201.53 0.194 200.469 0.102 199.405 C -1.155 184.825 9.319 171.112 24.015 169.434 C 26.888 169.106 29.973 168.962 32.854 169.323 C 44.04 170.724 51.831 179.928 55.464 189.923 L 55.464 189.923 L 111.988 189.672 C 113.966 172.495 119.586 155.274 131.584 142.442 L 131.584 142.442 L 101.186 112.045 L 93.649 104.508 Q 93.398 101.745 90.132 101.996 Q 84.354 106.267 73.552 105.513 Q 61.183 103.059 54.71 94.71 Q 48.852 88.007 49.183 75.115 Q 50.796 63.413 57.976 57.278 Q 64.997 49.729 79.581 49.742 Q 92.409 51.735 98.925 60.042 Q 105.421 66.86 104.954 80.642 Q 104.124 87.097 101.437 91.696 L 121.786 112.547 L 126.057 116.315 L 127.815 118.576 L 135.101 125.359 L 136.859 127.62 L 140.628 130.886 L 141.381 132.142 C 154.668 120.399 172 114.575 189.365 112.296 L 189.365 112.296 L 189.365 70.091 L 189.365 59.539 Q 190.369 55.771 188.611 54.766 Q 180.263 52.312 175.296 46.476 Q 167.618 39.332 168.764 23.364 Q 171.084 12.368 178.562 6.532 Q 184.415 1.331 194.138 0 Z " fill="rgb(0,0,0)"/></g></svg>