<?xml version="1.0" encoding="UTF-8" standalone="no"?><!-- Generator: Gravit.io --><svg xmlns="http://www.w3.org/2000/svg" xmlns:xlink="http://www.w3.org/1999/xlink" style="isolation:isolate" viewBox="0 0 512 512" width="512pt" height="512pt"><defs><clipPath id="_clipPath_EJp25j8GD0ibsO89IAxqu8V462Cgzv1e"><rect width="512" height="512"/></clipPath></defs><g clip-path="url(#_clipPath_EJp25j8GD0ibsO89IAxqu8V462Cgzv1e)"><path d=" M 238.8 67.8 C 238 67.8 237.2 67.8 236.6 67.8 C 228.8 67.8 221.2 70 214.4 74 C 206.6 60.8 192.4 52.8 177.2 52.8 L 155 52.8 C 111.8 53 76.8 88 76.6 131.2 L 76.6 166.2 C 83.6 160.6 92.4 158.2 101.2 159.6 L 101.2 156 C 101.2 153.8 103 152 105.2 152 L 106 152 C 119.8 154.8 160.6 159.8 188.4 125 C 189.8 123.2 192.4 123 194.2 124.4 C 194.4 124.4 194.4 124.6 194.6 124.6 C 200.2 130.2 214 140.6 238.8 143.6 L 238.8 67.8 Z " fill="rgb(129,129,130)"/><path d=" M 238.8 143.6 C 213.8 140.6 200.2 130.2 194.6 124.6 C 193 123 190.4 123 188.8 124.6 C 188.6 124.8 188.6 124.8 188.6 125 C 160.8 159.8 120 155 106.2 152 C 104 151.6 101.8 153 101.4 155.2 L 101.4 156 L 101.4 217 C 101.6 258.8 135.4 292.8 177.2 292.8 C 201.6 292.8 224.6 280.8 238.8 261 L 238.8 143.6 Z " fill="rgb(249,208,180)"/><path d=" M 412 424.6 L 407.6 424.6 L 407.6 420 C 407.6 416.6 404.8 414 401.6 414 C 398.2 414 395.6 416.8 395.6 420 L 395.6 424.4 L 391.2 424.4 C 387.8 424.4 385.2 427.2 385.2 430.4 C 385.2 433.8 388 436.4 391.2 436.4 L 395.6 436.4 L 395.6 440.8 C 395.6 444.2 398.4 446.8 401.6 446.8 C 405 446.8 407.6 444 407.6 440.8 L 407.6 436.4 L 412 436.4 C 415.4 436.4 418 433.6 418 430.4 C 418.2 427.2 415.4 424.6 412 424.6 L 412 424.6 Z " fill="rgb(112,214,249)"/><circle vector-effect="non-scaling-stroke" cx="112.4" cy="14.8" r="6.400000000000006" fill="rgb(112,214,249)"/><circle vector-effect="non-scaling-stroke" cx="482.4" cy="428.8" r="6.399999999999977" fill="rgb(245,200,76)"/><circle vector-effect="non-scaling-stroke" cx="380.4" cy="472.8" r="6.399999999999977" fill="rgb(135,209,71)"/><path d=" M 88.6 53.8 C 80.6 52.4 74.4 46.2 72.8 38.4 C 72.8 38.2 72.6 38 72.4 38.2 C 72.2 38.2 72.2 38.4 72.2 38.4 C 70.6 46.4 64.4 52.4 56.4 53.8 C 56.2 53.8 56 54 56 54.2 C 56 54.4 56.2 54.4 56.4 54.6 C 64.4 56 70.6 62.2 72.2 70 C 72.2 70.2 72.4 70.4 72.6 70.2 C 72.8 70.2 72.8 70 72.8 70 C 74.4 62 80.6 56 88.6 54.6 C 88.8 54.6 89 54.4 89 54.2 C 89 54 88.8 53.8 88.6 53.8 Z " fill="rgb(245,200,76)"/><path d=" M 93.6 274.8 C 88.2 273.8 83.8 269.6 82.6 264.2 C 82.6 264 82.4 264 82.4 264 C 82.2 264 82.2 264 82.2 264.2 C 81 269.6 76.8 273.8 71.2 274.8 C 71 274.8 71 275 71 275 C 71 275.2 71 275.2 71.2 275.2 C 76.6 276.2 81 280.4 82.2 285.8 C 82.2 286 82.4 286 82.4 286 C 82.6 286 82.6 286 82.6 285.8 C 83.8 280.4 88 276.2 93.6 275.2 C 93.8 275.2 93.6 275 93.6 274.8 C 93.6 275 93.6 275 93.6 274.8 Z " fill="rgb(252,101,126)"/><path d=" M 101.4 217 L 101.4 159.6 C 84.2 156.8 67.8 168.6 65 185.8 C 62.2 203 74 219.4 91.2 222.2 C 94.6 222.8 98.2 222.8 101.6 222.2 C 101.4 220.4 101.4 218.8 101.4 217 Z " fill="rgb(249,208,180)"/><path d=" M 341.4 391.4 L 249 391.4 C 243.4 391.4 238.8 386.8 238.8 381.2 L 238.8 320.8 L 228.2 315.6 C 219.8 311.4 214.6 303 214.6 293.6 L 214.6 282.8 C 203.2 289.4 190.4 292.8 177.2 292.8 C 164 292.8 151.2 289.4 139.8 282.8 L 139.8 293.6 C 139.8 303 134.6 311.4 126.2 315.6 L 108.4 324.4 C 104 326.6 99.4 328.2 94.6 329.4 L 38.6 343.4 C 25 346.8 15.2 358.8 14.4 372.8 L 5 492.2 C 4.4 499.6 10 506.2 17.4 506.8 L 18.4 506.8 L 336 506.8 C 343.4 506.8 349.6 500.8 349.6 493.2 C 349.6 492.8 349.6 492.4 349.6 492.2 L 341.4 391.4 Z " fill="rgb(112,214,249)"/><path d=" M 238.8 321 L 228.2 315.8 C 219.8 311.6 214.6 303.2 214.6 293.8 L 214.6 283 C 203.2 289.6 190.4 293 177.2 293 C 164 293 151.2 289.6 139.8 283 L 139.8 293.8 C 139.8 303.2 134.6 311.6 126.2 315.8 L 113.2 322.2 C 127 344.2 151.2 357.6 177.2 357.6 C 201.6 357.6 224.6 345.6 238.8 325.8 L 238.8 321 Z " fill="rgb(249,208,180)"/><path d=" M 177.2 256.6 C 163.4 256.6 150.6 249.6 143.4 238 C 142 235.6 142.6 232.6 145 231 C 147.4 229.4 150.4 230.2 152 232.6 C 160.8 246.6 179.2 250.8 193.2 242 C 197 239.6 200.2 236.4 202.6 232.6 C 204 230.2 207.2 229.6 209.6 231 C 212 232.4 212.6 235.6 211.2 238 C 203.8 249.4 191 256.6 177.2 256.6 Z " fill="rgb(0,0,0)"/><circle vector-effect="non-scaling-stroke" cx="144.6" cy="194.2" r="9" fill="rgb(0,0,0)"/><circle vector-effect="non-scaling-stroke" cx="211.4" cy="194.2" r="9" fill="rgb(0,0,0)"/><path d=" M 96.4 227.6 C 76.2 227.6 59.6 211.4 59.6 191 C 59.6 170.6 75.8 154.2 96.2 154.2 C 98.2 154.2 100.2 154.4 102.2 154.6 C 104.6 155 106.4 157 106.4 159.6 L 106.4 217 C 106.4 218.4 106.4 220 106.6 221.8 C 106.8 224.4 105 226.6 102.4 227 C 100.4 227.4 98.4 227.6 96.4 227.6 Z  M 96.4 164.2 C 81.6 164.2 69.8 176.2 69.8 190.8 C 69.8 205.6 81.8 217.4 96.4 217.4 C 96.4 217.2 96.4 217 96.4 216.8 L 96.4 164.2 Z " fill="rgb(0,0,0)"/><path d=" M 336 512 L 18.6 512 C 8.4 512 0 503.8 0 493.4 C 0 493 0 492.4 0 492 L 9.4 372.6 C 10.2 356.4 21.6 342.8 37.4 338.8 L 93.4 324.8 C 97.8 323.6 102 322.2 106.2 320.2 L 124 311.4 C 130.6 308.2 135 301.4 134.8 294 L 134.8 283.2 C 134.8 280.4 137 278.2 139.8 278.2 C 140.6 278.2 141.6 278.4 142.2 278.8 C 163.8 291.2 190.4 291.2 212 278.8 C 214.4 277.4 217.4 278.2 218.8 280.6 C 219.2 281.4 219.4 282.2 219.4 283 L 219.4 293.8 C 219.4 301.2 223.6 308 230.2 311.2 L 240.8 316.4 C 242.6 317.2 243.6 319 243.6 320.8 L 243.6 381.2 C 243.6 384 245.8 386.4 248.8 386.4 L 341.2 386.4 C 343.8 386.4 346 388.4 346.2 391 L 354.2 492 C 355 502.2 347.4 511.2 337.2 512 C 336.8 512 336.4 512 336 512 L 336 512 Z  M 144.8 291.2 L 144.8 293.8 C 144.8 305 138.4 315.4 128.4 320.2 L 110.6 329 C 106 331.4 101 333.2 95.8 334.4 L 39.8 348.4 C 28.2 351.2 20 361.2 19.4 373.2 L 10 492.8 C 9.6 497.4 13.2 501.6 17.8 502 L 18.4 502 L 336 502 C 340.8 502 344.6 498.2 344.6 493.4 C 344.6 493.2 344.6 493 344.6 492.8 L 337 396.4 L 249.2 396.4 C 240.8 396.4 234 389.6 234 381.2 L 234 324 L 226.2 320.2 C 216 315.2 209.8 305 209.8 293.8 L 209.8 291.2 C 189 300.2 165.4 300.2 144.8 291.2 L 144.8 291.2 Z " fill="rgb(0,0,0)"/><path d=" M 177.2 362.6 C 149.4 362.6 123.6 348.4 109 325 C 107.6 322.6 108.2 319.6 110.6 318 C 110.8 318 111 317.8 111 317.8 L 124 311.4 C 130.6 308.2 135 301.4 134.8 294 L 134.8 283.2 C 134.8 280.4 137 278.2 139.8 278.2 C 140.6 278.2 141.6 278.4 142.2 278.8 C 163.8 291.2 190.4 291.2 212 278.8 C 214.4 277.4 217.4 278.2 218.8 280.6 C 219.2 281.4 219.4 282.2 219.4 283 L 219.4 293.8 C 219.4 301.2 223.6 308 230.2 311.2 L 240.8 316.4 C 242.6 317.2 243.6 319 243.6 320.8 L 243.6 325.4 C 243.6 326.4 243.2 327.4 242.6 328.4 C 227.8 349.8 203.4 362.4 177.2 362.6 L 177.2 362.6 Z  M 120.6 324 C 143.8 355.2 188.2 361.8 219.4 338.4 C 224.8 334.4 229.8 329.4 233.8 324 L 226 320.2 C 215.8 315.2 209.6 305 209.6 293.8 L 209.6 291.2 C 189 300.4 165.4 300.4 144.8 291.2 L 144.8 293.8 C 144.8 305 138.4 315.4 128.4 320.2 L 120.6 324 Z " fill="rgb(0,0,0)"/><path d="M 249.456 45.6 L 471.544 45.6 C 476.873 45.6 481.2 49.927 481.2 55.256 L 481.2 379.744 C 481.2 385.073 476.873 389.4 471.544 389.4 L 249.456 389.4 C 244.127 389.4 239.8 385.073 239.8 379.744 L 239.8 55.256 C 239.8 49.927 244.127 45.6 249.456 45.6 Z" style="stroke:none;fill:#EDF4FC;stroke-miterlimit:10;"/><path d="M 249.456 45.6 L 471.544 45.6 C 476.873 45.6 481.2 49.927 481.2 55.256 L 481.2 379.744 C 481.2 385.073 476.873 389.4 471.544 389.4 L 249.456 389.4 C 244.127 389.4 239.8 385.073 239.8 379.744 L 239.8 55.256 C 239.8 49.927 244.127 45.6 249.456 45.6 Z" style="fill:none;stroke:#060606;stroke-width:8;stroke-miterlimit:2;"/><path d=" M 76.6 171.2 C 73.8 171.2 71.6 169 71.6 166.2 L 71.6 131.2 C 71.6 85.2 109 48 155 47.8 L 177.2 47.8 C 192.6 47.8 206.8 55.2 216 67.4 C 223.2 64 231.2 62.4 239 62.8 C 241.6 63 243.8 65.2 243.8 67.8 L 243.8 143.4 C 243.8 146.2 241.6 148.4 238.8 148.4 C 238.6 148.4 238.4 148.4 238.2 148.4 C 213 145.4 198.4 135.2 191.8 128.8 C 162.8 164.6 120.4 160 106.4 157.2 L 106.4 159.6 C 106.4 162.4 104.2 164.6 101.4 164.6 C 101.2 164.6 100.8 164.6 100.6 164.6 C 99.2 164.4 97.8 164.2 96.4 164.2 C 90.4 164.2 84.4 166.2 79.8 170 C 79 170.8 77.8 171.2 76.6 171.2 Z  M 155 57.8 C 114.6 57.8 81.8 90.6 81.6 131.2 L 81.6 157.4 C 86.2 155.4 91.2 154.2 96.4 154.4 C 97.4 149.4 102.2 146.4 107 147.4 C 122 150.2 159.2 154 184.6 122 C 187.8 118 193.4 117.4 197.4 120.6 C 197.6 120.8 197.8 121 198.2 121.2 C 203.2 126.2 214.2 134.4 234 137.8 L 234 73 C 228 73.4 222.2 75.2 217.2 78.4 C 214.8 79.8 211.8 79 210.4 76.6 C 203.4 65 191 58 177.6 57.8 L 155 57.8 Z " fill="rgb(0,0,0)"/><path d=" M 177.2 298 C 132.6 298 96.4 261.8 96.4 217.2 L 96.4 156 C 96.4 153.2 97.6 150.6 99.8 149 C 102 147.2 104.8 146.6 107.4 147.2 C 122 150.2 159.2 154 184.6 122 C 187.8 118 193.4 117.4 197.4 120.6 C 197.6 120.8 197.8 121 198.2 121.2 C 203.6 126.6 216.2 136 239.6 138.8 C 242.2 139.2 244 141.2 244 143.8 L 244 261.4 C 244 262.4 243.6 263.4 243 264.4 C 227.8 285.2 203.2 297.8 177.2 298 L 177.2 298 Z  M 106.4 157.2 L 106.4 217 C 106.4 256.2 138 287.8 177.2 287.8 C 199.6 287.8 220.6 277.2 234 259.4 L 234 147.8 C 211.4 144.2 198.2 134.8 192 128.8 C 162.8 164.6 120.4 160 106.4 157.2 L 106.4 157.2 Z " fill="rgb(0,0,0)"/><path d=" M 66 506 C 63.2 506 61 503.8 61 501 L 61 424 C 61 421.2 63.2 419 66 419 C 68.8 419 71 421.2 71 424 L 71 501 C 71 503.8 68.8 506 66 506 Z " fill="rgb(0,0,0)"/><path d=" M 290 506 C 287.2 506 285 503.8 285 501 L 285 424 C 285 421.2 287.2 419 290 419 C 292.8 419 295 421.2 295 424 L 295 501 C 295 503.8 292.8 506 290 506 Z " fill="rgb(0,0,0)"/><mask id="_mask_uZnAJvib8HxOkgbGooDaYRSvUy9R7qQV"><circle vector-effect="non-scaling-stroke" cx="367.50000000000006" cy="214.10000000000002" r="82.5" fill="white" stroke="none"/></mask><circle vector-effect="non-scaling-stroke" cx="367.50000000000006" cy="214.10000000000002" r="82.5" fill="rgb(204,5,5)"/><circle vector-effect="non-scaling-stroke" cx="367.50000000000006" cy="214.10000000000002" r="82.5" fill="rgb(204,5,5)" mask="url(#_mask_uZnAJvib8HxOkgbGooDaYRSvUy9R7qQV)" stroke-width="16" stroke="rgb(0,0,0)" stroke-linejoin="miter" stroke-linecap="square" stroke-miterlimit="3"/><mask id="_mask_8kuQohhQYCobrLDBr7GgbQiQMDSzQuzI"><path d=" M 367.5 195.15 L 339.499 167.148 C 334.815 162.465 327.211 162.465 322.528 167.148 L 320.548 169.128 C 315.865 173.811 315.865 181.415 320.548 186.099 L 348.55 214.1 L 320.212 242.438 C 315.714 246.935 315.714 254.238 320.212 258.735 L 322.865 261.388 C 327.362 265.886 334.665 265.886 339.162 261.388 L 367.5 233.05 L 395.501 261.052 C 400.185 265.735 407.789 265.735 412.472 261.052 L 414.452 259.072 C 419.135 254.389 419.135 246.785 414.452 242.101 L 386.45 214.1 L 414.788 185.762 C 419.286 181.265 419.286 173.962 414.788 169.465 L 412.135 166.812 C 407.638 162.314 400.335 162.314 395.838 166.812 L 367.5 195.15 Z " fill-rule="evenodd" fill="white" stroke="none"/></mask><path d=" M 367.5 195.15 L 339.499 167.148 C 334.815 162.465 327.211 162.465 322.528 167.148 L 320.548 169.128 C 315.865 173.811 315.865 181.415 320.548 186.099 L 348.55 214.1 L 320.212 242.438 C 315.714 246.935 315.714 254.238 320.212 258.735 L 322.865 261.388 C 327.362 265.886 334.665 265.886 339.162 261.388 L 367.5 233.05 L 395.501 261.052 C 400.185 265.735 407.789 265.735 412.472 261.052 L 414.452 259.072 C 419.135 254.389 419.135 246.785 414.452 242.101 L 386.45 214.1 L 414.788 185.762 C 419.286 181.265 419.286 173.962 414.788 169.465 L 412.135 166.812 C 407.638 162.314 400.335 162.314 395.838 166.812 L 367.5 195.15 Z " fill-rule="evenodd" fill="rgb(255,255,255)"/><path d=" M 367.5 195.15 L 339.499 167.148 C 334.815 162.465 327.211 162.465 322.528 167.148 L 320.548 169.128 C 315.865 173.811 315.865 181.415 320.548 186.099 L 348.55 214.1 L 320.212 242.438 C 315.714 246.935 315.714 254.238 320.212 258.735 L 322.865 261.388 C 327.362 265.886 334.665 265.886 339.162 261.388 L 367.5 233.05 L 395.501 261.052 C 400.185 265.735 407.789 265.735 412.472 261.052 L 414.452 259.072 C 419.135 254.389 419.135 246.785 414.452 242.101 L 386.45 214.1 L 414.788 185.762 C 419.286 181.265 419.286 173.962 414.788 169.465 L 412.135 166.812 C 407.638 162.314 400.335 162.314 395.838 166.812 L 367.5 195.15 Z " fill-rule="evenodd" fill="rgb(255,255,255)" mask="url(#_mask_8kuQohhQYCobrLDBr7GgbQiQMDSzQuzI)" vector-effect="non-scaling-stroke" stroke-width="12" stroke="rgb(0,0,0)" stroke-linejoin="miter" stroke-linecap="square" stroke-miterlimit="3"/></g></svg>